<svg xmlns="http://www.w3.org/2000/svg" width="20" height="20" viewBox="0 0 20 20" fill="none">
<path d="M19.4 -0.0H14.4C14.0 -0.0 13.8 0.2 13.8 0.5V2.9C13.8 3.2 14.0 3.5 14.4 3.5H15.1V5.2C15.1 5.2 15.1 5.2 15.1 5.2V11.3C15.1 12.4 14.7 13.5 14.0 14.4C13.4 15.3 12.4 16.0 11.3 16.3C10.1 16.6 8.8 16.5 7.7 15.9C6.7 15.4 5.9 14.6 5.4 13.7C5.0 13.0 4.8 12.1 4.8 11.3V5.2C4.8 5.2 4.8 5.2 4.8 5.2V3.5H5.5C5.9 3.5 6.1 3.2 6.1 2.9V0.5C6.1 0.2 5.9 -0.0 5.5 -0.0H0.5C0.2 -0.0 0 0.2 0 0.5V2.9C0 3.2 0.2 3.5 0.5 3.5H1.3C1.3 3.5 1.3 5.2 1.3 5.2V11.3C1.3 13.6 2.2 15.7 3.7 17.3C5.3 18.9 7.5 19.9 9.7 19.9C12.0 20.0 14.2 19.2 15.8 17.7C17.5 16.2 18.5 14.0 18.6 11.8C18.6 11.6 18.6 11.5 18.6 11.3C18.6 11.3 18.6 5.2 18.6 5.2V3.5H19.4C19.7 3.5 19.9 3.2 19.9 2.9V0.5C19.9 0.2 19.7 -0.0 19.4 -0.0V-0.0ZM1.1 1.1H4.9V2.3H1.1V1.1ZM3.6 3.5V4.6H2.4V3.5H3.6ZM17.5 11.3C17.4 12.1 17.3 12.8 17.1 13.6C16.6 15.0 15.7 16.3 14.5 17.3C12.5 18.8 9.6 19.2 7.2 18.3C5.2 17.5 3.5 15.8 2.8 13.7C2.6 12.9 2.4 12.1 2.4 11.3V5.8H3.6V11.3C3.6 13.6 4.9 15.7 6.8 16.8C8.9 18.0 11.7 17.9 13.6 16.4C14.7 15.7 15.5 14.6 15.9 13.3C16.7 10.9 16.0 8.3 16.3 5.8C16.7 5.8 17.1 5.8 17.5 5.8C17.3 7.6 17.6 9.5 17.5 11.3ZM17.4 4.6H16.3V3.5H17.4V4.6ZM18.8 2.3H14.9V1.1H18.8V2.3Z" fill="#FFCF7A"/>
</svg>