<svg xmlns="http://www.w3.org/2000/svg" width="20" height="20" viewBox="0 0 20 20" fill="none">
<g clip-path="url(#clip0_71_295)">
<path d="M8.8 -0.0H11.1V11.1H8.8V-0.0Z" fill="#FFCF7A"/>
<path d="M15.0 1.3L13.8 3.2C16.2 4.6 17.7 7.2 17.7 9.9C17.7 14.2 14.2 17.7 10 17.7C5.7 17.7 2.2 14.2 2.2 9.9C2.2 7.2 3.7 4.6 6.1 3.2L4.9 1.3C1.9 3.1 0 6.4 0 9.9C0 15.5 4.4 19.9 10 19.9C15.5 19.9 20 15.5 20 9.9C20 6.4 18.0 3.1 15.0 1.3Z" fill="#FFCF7A"/>
</g>
<defs>
<clipPath id="clip0_71_295">
<rect width="20" height="20" fill="white"/>
</clipPath>
</defs>
</svg>