<svg xmlns="http://www.w3.org/2000/svg" width="50" height="50" viewBox="0 0 50 50" fill="none">
<g clip-path="url(#clip0_64_206)">
<path d="M8.0 23.7C5.7 26.5 4.4 30.1 4.4 33.8C4.4 42.7 11.7 50 20.6 50C29.4 50 36.7 42.7 36.7 33.8C36.7 30.1 35.4 26.5 33.1 23.7L20.6 8.0L8.0 23.7ZM33.7 33.8C33.7 41.1 27.8 47.0 20.6 47.0C13.3 47.0 7.4 41.1 7.4 33.8C7.4 30.8 8.4 27.8 10.3 25.5L20.6 12.6L30.9 25.5C32.7 27.8 33.7 30.8 33.7 33.8Z" fill="white"/>
<path d="M45.5 11.8C45.5 10.1 44.9 8.5 43.9 7.2L38.1 0L32.4 7.2C31.4 8.5 30.8 10.1 30.8 11.8C30.8 15.8 34.1 19.1 38.1 19.1C42.2 19.1 45.5 15.8 45.5 11.8ZM33.7 11.8C33.7 10.8 34.1 9.8 34.7 9.0L38.1 4.7L41.6 9.0C42.2 9.8 42.5 10.8 42.5 11.8C42.5 14.2 40.6 16.2 38.1 16.2C35.7 16.2 33.7 14.2 33.7 11.8Z" fill="white"/>
</g>
<defs>
<clipPath id="clip0_64_206">
<rect width="50" height="50" fill="white"/>
</clipPath>
</defs>
</svg>