<svg xmlns="http://www.w3.org/2000/svg" width="46" height="46" viewBox="0 0 46 46" fill="none">
<g clip-path="url(#clip0_64_204)">
<path d="M38.5 20.0L37.9 18.9L36.7 19.5C35.8 19.9 34.9 20.1 33.8 20.1C30.4 20.1 27.5 17.2 27.5 13.7V11.4C27.5 7.8 26.3 4.2 24.0 1.3L23.0 0L9.4 17.0C6.8 20.1 5.4 24.0 5.3 28.0C5.2 32.8 7.1 37.2 10.4 40.7C13.8 44.1 18.2 45.9 22.9 46H22.9H22.9H23.0H23.0C27.7 45.9 32.1 44.1 35.4 40.8C38.8 37.5 40.6 33.0 40.6 28.3C40.6 25.4 39.9 22.6 38.5 20.0ZM27.7 35.8C28.0 35.8 28.3 35.8 28.5 35.7C28.7 36.3 28.8 36.8 28.8 37.4C28.8 39.0 28.2 40.5 27.1 41.6C26.0 42.7 24.5 43.3 23 43.3C22.9 43.3 22.9 43.3 22.9 43.3C21.4 43.3 19.9 42.6 18.8 41.5C17.7 40.4 17.1 38.9 17.1 37.3C17.1 36.0 17.6 34.7 18.5 33.7L22.8 28.3C22.9 28.9 23.0 29.4 23.0 30.0V31.0C23.0 33.6 25.1 35.8 27.7 35.8ZM33.5 38.9C32.6 39.8 31.7 40.5 30.6 41.1C31.2 40.0 31.5 38.7 31.5 37.4C31.5 36.0 31.1 34.7 30.5 33.4L29.9 32.3L28.7 32.9C28.4 33.0 28.1 33.1 27.7 33.1C26.6 33.1 25.7 32.1 25.7 31.0V30.0C25.7 28.2 25.1 26.5 24.0 25.1L23.0 23.7L16.4 32.0C15.2 33.5 14.5 35.4 14.4 37.3C14.4 38.6 14.7 39.9 15.3 41.1C14.2 40.5 13.2 39.7 12.3 38.8C9.5 35.9 7.9 32.1 8.0 28.1C8.1 24.7 9.3 21.3 11.5 18.7L11.5 18.7L22.9 4.4C24.2 6.5 24.9 8.9 24.9 11.4V13.7C24.9 18.7 28.9 22.8 33.8 22.8C34.8 22.8 35.8 22.7 36.7 22.4C37.5 24.2 37.9 26.3 37.9 28.3C37.9 32.3 36.3 36.1 33.5 38.9Z" fill="white"/>
</g>
<defs>
<clipPath id="clip0_64_204">
<rect width="46" height="46" fill="white"/>
</clipPath>
</defs>
</svg>